<svg style="position: absolute; width: 0; height: 0; overflow: hidden;" version="1.1" xmlns="http://www.w3.org/2000/svg" xmlns:xlink="http://www.w3.org/1999/xlink">
    <defs>
        <symbol id="icon-minus" viewBox="0 0 20 20">
            <path d="M13 9H7a1 1 0 0 0 0 2h6a1 1 0 0 0 0-2z"/>
        </symbol>
        <symbol id="icon-user-profile" viewBox="0 0 20 20">
            <path d="M14 6a4 4 0 1 1-8 0 4 4 0 0 1 8 0zM17.211 16.554C15.925 13.862 13.183 12 10 12s-5.925 1.862-7.211 4.554c-.32.669.16 1.446.901 1.446h12.62c.741 0 1.221-.777.901-1.446z"/>
        </symbol>
        <symbol id="icon-small-arrow-down" viewBox="0 0 20 20">
            <path d="M13.707 8.293a.999.999 0 0 0-1.414 0L10 10.586 7.707 8.293a.999.999 0 1 0-1.414 1.414l3 3a.997.997 0 0 0 1.414 0l3-3a.999.999 0 0 0 0-1.414z"/>
        </symbol>
        <symbol id="icon-change" viewBox="0 0 20 20">
            <path d="M5 8h7.586l-.293.293a.999.999 0 1 0 1.414 1.414l2-2a1.001 1.001 0 0 0 0-1.414l-2-2a.999.999 0 1 0-1.414 1.414l.293.293H5a1 1 0 0 0 0 2zM15 12H7.414l.293-.293a.999.999 0 1 0-1.414-1.414l-2 2a1.001 1.001 0 0 0 0 1.414l2 2a.997.997 0 0 0 1.414 0 .999.999 0 0 0 0-1.414L7.414 14H15a1 1 0 0 0 0-2z"/>
        </symbol>
        <symbol id="icon-close" viewBox="0 0 20 20">
            <path d="M11.414 10l4.293-4.293a.999.999 0 1 0-1.414-1.414L10 8.586 5.707 4.293a.999.999 0 1 0-1.414 1.414L8.586 10l-4.293 4.293a.999.999 0 1 0 1.414 1.414L10 11.414l4.293 4.293a.997.997 0 0 0 1.414 0 .999.999 0 0 0 0-1.414L11.414 10z"/>
        </symbol>
        <symbol id="icon-do-not" viewBox="0 0 20 20">
            <path d="M14.243 5.758C13.109 4.624 11.603 4 10 4s-3.109.624-4.243 1.758C4.624 6.891 4 8.397 4 10s.624 3.109 1.757 4.242C6.891 15.376 8.397 16 10 16s3.109-.624 4.243-1.758C15.376 13.109 16 11.603 16 10s-.624-3.109-1.757-4.242zm-1.414 1.414A3.976 3.976 0 0 1 14 10c0 .725-.206 1.413-.565 2.021L7.978 6.565A3.968 3.968 0 0 1 10 6c1.068 0 2.073.416 2.829 1.172zm-5.658 5.656A3.976 3.976 0 0 1 6 10c0-.725.206-1.413.565-2.021l5.448 5.448c-1.523.859-3.573.669-4.842-.599z"/>
        </symbol>
        <symbol id="icon-add" viewBox="0 0 20 20">
            <path d="M15 9h-4V5a1 1 0 0 0-2 0v4H5a1 1 0 0 0 0 2h4v4a1 1 0 0 0 2 0v-4h4a1 1 0 0 0 0-2z"/>
        </symbol>
        <symbol id="icon-calendar" viewBox="0 0 20 20">
            <path d="M14 6V5a1 1 0 0 0-2 0v1H8V5a1 1 0 0 0-2 0v1a2 2 0 0 0-2 2h12a2 2 0 0 0-2-2zM4 14a2 2 0 0 0 2 2h8a2 2 0 0 0 2-2v-4H4v4z"/>
        </symbol>
        <symbol id="icon-envelope" viewBox="0 0 20 20">
            <path d="M15.985 6.847A1.994 1.994 0 0 0 14 5H6a1.994 1.994 0 0 0-1.985 1.847L10 9.412l5.985-2.565z"/>
            <path d="M10.394 11.419a1 1 0 0 1-.788 0L4 9.016V13a2 2 0 0 0 2 2h8a2 2 0 0 0 2-2V9.016l-5.606 2.403z"/>
        </symbol>
        <symbol id="icon-financial" viewBox="0 0 20 20">
            <path d="M16 7a3 3 0 0 0-3-3H7a3 3 0 0 0-3 3v6a3 3 0 0 0 3 3h6a3 3 0 0 0 3-3V7zm-3.422 5.607a2.285 2.285 0 0 1-1.007.844c-.179.081-.571.134-.571.183v.241c0 .535-.465.969-1 .969s-1-.434-1-.969v-.227c0-.069-.556-.171-.792-.309a2.378 2.378 0 0 1-.808-.797c-.212-.333-.319-.666-.319-.989 0-.21.07-.386.217-.538a.773.773 0 0 1 .553-.224c.183 0 .353.063.477.178.12.11.218.266.301.476.086.215.178.394.273.531.089.129.22.238.387.325s.395.13.677.13c.387 0 .703-.089.94-.266.23-.173.339-.37.339-.622a.648.648 0 0 0-.173-.468 1.251 1.251 0 0 0-.494-.297 9.317 9.317 0 0 0-.888-.24 6.795 6.795 0 0 1-1.29-.423 2.18 2.18 0 0 1-.863-.688c-.216-.295-.327-.664-.327-1.096 0-.412.11-.784.337-1.106.225-.32.544-.569.966-.739.154-.062.487-.101.487-.14v-.221c0-.535.465-.969 1-.969s1 .434 1 .969v.236c0 .015.106.023.159.041.329.112.591.264.81.451.222.189.386.391.488.601.104.211.156.423.156.629a.808.808 0 0 1-.823.81c-.178 0-.321-.059-.394-.16a.799.799 0 0 1-.062-.109c-.117-.223-.318-.604-.673-.914-.147-.126-.407-.191-.773-.191-.334 0-.604.072-.804.215-.191.137-.28.286-.28.468 0 .109.029.202.086.278a.817.817 0 0 0 .272.226c.123.067.25.122.38.161.135.041.359.101.671.18.393.091.758.195 1.083.308.333.117.619.26.852.424.242.172.434.392.568.653s.207.584.207.959c0 .449-.113.858-.345 1.216z"/>        </symbol>
        <symbol id="icon-fulfillment" viewBox="0 0 20 20">
            <path d="M13 4H7a3 3 0 0 0-3 3v6a3 3 0 0 0 3 3h6a3 3 0 0 0 3-3V7a3 3 0 0 0-3-3zm.694 4.892L10 12.586a1.045 1.045 0 0 1-1.478 0l-2.217-2.217a1.045 1.045 0 0 1 1.478-1.478l1.478 1.478 2.955-2.955a1.045 1.045 0 0 1 1.478 1.478z"/>
        </symbol>
        <symbol id="icon-full-arrow-right" viewBox="0 0 20 20">
            <path d="M15.923 10.382a1.001 1.001 0 0 0-.217-1.09l-3.999-3.999a.999.999 0 1 0-1.414 1.414L12.586 9H5a1 1 0 1 0 0 2h7.586l-2.293 2.293a.999.999 0 1 0 1.414 1.414l3.999-3.999a1 1 0 0 0 .217-.326z"/>
        </symbol>
        <symbol id="icon-info" viewBox="0 0 20 20">
            <path d="M15 10a1 1 0 0 0-1 1v3H6V6h3a1 1 0 0 0 0-2H6a2 2 0 0 0-2 2v8a2 2 0 0 0 2 2h8a2 2 0 0 0 2-2v-3a1 1 0 0 0-1-1z"/>
            <path d="M8.693 11.291L10.402 11 15.3 6.102a.99.99 0 0 0 0-1.4l-.002-.002a.99.99 0 0 0-1.4 0L9 9.598l-.307 1.693z"/>
        </symbol>
        <symbol id="icon-note" viewBox="0 0 20 20">
            <path d="M11 4v4h4z"/>
            <path d="M9 8V4H7a2 2 0 0 0-2 2v8a2 2 0 0 0 2 2h6a2 2 0 0 0 2-2v-4h-4a2 2 0 0 1-2-2z"/>
        </symbol>
        <symbol id="icon-unfulfilled" viewBox="0 0 20 20">
            <path d="M14 4H6a2 2 0 0 0-2 2v8a2 2 0 0 0 2 2h8a2 2 0 0 0 2-2V6a2 2 0 0 0-2-2zm-.293 8.293a.999.999 0 1 1-1.414 1.414L10 11.414l-2.293 2.293a.997.997 0 0 1-1.414 0 .999.999 0 0 1 0-1.414L8.586 10 6.293 7.707a.999.999 0 1 1 1.414-1.414L10 8.586l2.293-2.293a.999.999 0 1 1 1.414 1.414L11.414 10l2.293 2.293z"/>
        </symbol>
        <symbol id="icon-attention-circle" viewBox="0 0 20 20">
            <path d="M10 2a8 8 0 1 0 0 16 8 8 0 0 0 0-16zm0 12a1 1 0 1 1 0-2 1 1 0 0 1 0 2zm1-4a1 1 0 0 1-2 0V7a1 1 0 0 1 2 0v3z"/>
        </symbol>
        <symbol id="icon-remove" viewBox="0 0 20 20">
            <path d="M13.962 8H6.038c-.655 0-1.146.577-1.017 1.196l.661 7c.096.468.522.804 1.017.804h6.602c.495 0 .921-.336 1.018-.804l.661-7C15.108 8.577 14.617 8 13.962 8zM15 4h-3c0-1.105-.895-1-2-1s-2-.105-2 1H5a1 1 0 0 0 0 2h10a1 1 0 0 0 0-2z"/>
        </symbol>
        <symbol id="icon-star" viewBox="0 0 20 20">
            <path d="M10.916 3.731l1.609 3.331 3.599.534c.838.124 1.172 1.176.566 1.78l-2.604 2.593.615 3.661c.143.852-.733 1.502-1.482 1.1L10 15l-3.219 1.728c-.749.402-1.625-.248-1.482-1.1l.615-3.661L3.31 9.375c-.607-.603-.272-1.655.566-1.779l3.599-.534 1.609-3.331a1.012 1.012 0 0 1 1.832 0z"/>
        </symbol>
        <symbol id="icon-danger-circle" viewBox="0 0 20 20">
            <path d="M10 2a8 8 0 1 0 0 16 8 8 0 0 0 0-16zm3.707 10.293a.999.999 0 1 1-1.414 1.414L10 11.414l-2.293 2.293a.997.997 0 0 1-1.414 0 .999.999 0 0 1 0-1.414L8.586 10 6.293 7.707a.999.999 0 1 1 1.414-1.414L10 8.586l2.293-2.293a.999.999 0 1 1 1.414 1.414L11.414 10l2.293 2.293z"/>
        </symbol>
        <symbol id="icon-dashboard" viewBox="0 0 20 20">
            <path d="M6 11a1 1 0 0 0-1-1H4a1 1 0 0 0-1 1v6a1 1 0 0 0 1 1h1a1 1 0 0 0 1-1v-6zM16 7a1 1 0 0 0-1-1h-1a1 1 0 0 0-1 1v10a1 1 0 0 0 1 1h1a1 1 0 0 0 1-1V7zM11 3a1 1 0 0 0-1-1H9a1 1 0 0 0-1 1v14a1 1 0 0 0 1 1h1a1 1 0 0 0 1-1V3z"/>
        </symbol>
        <symbol id="icon-done-circle" viewBox="0 0 20 20">
            <path d="M10 2a8 8 0 1 0 0 16 8 8 0 0 0 0-16zm3.694 7L10 12.694a1.045 1.045 0 0 1-1.478 0l-2.217-2.217a1.045 1.045 0 0 1 1.478-1.478l1.478 1.478 2.955-2.955A1.045 1.045 0 0 1 13.694 9z"/>
        </symbol>
        <symbol id="icon-sidebar-bell" viewBox="0 0 20 20">
            <path d="M9.708 18a2.99 2.99 0 0 0 2.816-2H6.892a2.99 2.99 0 0 0 2.816 2zM17 12a1 1 0 0 1-1-1V8A6 6 0 1 0 4 8v3c0 .552-.448 1-1 1a1 1 0 0 0 0 2h14a1 1 0 0 0 0-2z"/>
        </symbol>
        <symbol id="icon-sidebar-file" viewBox="0 0 20 20">
            <path d="M14 2H6a4 4 0 0 0-4 4v8a4 4 0 0 0 4 4h8a4 4 0 0 0 4-4V6a4 4 0 0 0-4-4zm-.306 6.892L10 12.586a1.045 1.045 0 0 1-1.478 0l-2.217-2.217a1.045 1.045 0 0 1 1.478-1.478l1.478 1.478 2.955-2.955a1.045 1.045 0 0 1 1.478 1.478z"/>
        </symbol>
        <symbol id="icon-sidebar-search" viewBox="0 0 20 20">
            <path d="M17.707 16.293l-3.106-3.106A6.944 6.944 0 0 0 16 9c0-1.87-.729-3.627-2.051-4.95S10.87 2 9 2s-3.627.728-4.949 2.05S2 7.13 2 9s.729 3.627 2.051 4.95S7.13 16 9 16a6.94 6.94 0 0 0 4.186-1.399l3.107 3.106a.997.997 0 0 0 1.414 0 .999.999 0 0 0 0-1.414zm-5.172-3.757C11.591 13.48 10.335 14 9 14s-2.591-.52-3.535-1.464S4 10.335 4 9s.521-2.591 1.465-3.536S7.665 4 9 4s2.591.52 3.535 1.464S14 7.665 14 9s-.521 2.591-1.465 3.536z"/>
        </symbol>
        <symbol id="icon-sidebar-settings" viewBox="0 0 20 20">
            <path d="M17.124 8.891l-1.261-.158a5.962 5.962 0 0 0-.823-1.981l.782-1.005a1 1 0 0 0-.082-1.321l-.166-.166a1 1 0 0 0-1.321-.082l-1.005.782a5.954 5.954 0 0 0-1.981-.823l-.158-1.261A1 1 0 0 0 10.117 2h-.234a1 1 0 0 0-.992.876l-.158 1.261a5.962 5.962 0 0 0-1.981.823l-1.005-.782a1 1 0 0 0-1.321.082l-.166.166a1 1 0 0 0-.082 1.321l.782 1.005a5.962 5.962 0 0 0-.823 1.981l-1.261.158A1 1 0 0 0 2 9.883v.234a1 1 0 0 0 .876.992l1.261.158c.154.717.438 1.384.823 1.981l-.782 1.005a1 1 0 0 0 .082 1.321l.166.166a1 1 0 0 0 1.321.082l1.005-.782a5.954 5.954 0 0 0 1.981.823l.158 1.261a1 1 0 0 0 .992.876h.234a1 1 0 0 0 .992-.876l.158-1.261a5.962 5.962 0 0 0 1.981-.823l1.005.782a1 1 0 0 0 1.321-.082l.166-.166a1 1 0 0 0 .082-1.321l-.782-1.005a5.954 5.954 0 0 0 .823-1.981l1.261-.158a1 1 0 0 0 .876-.992v-.234a1 1 0 0 0-.876-.992zM10 13a3 3 0 1 1 0-6 3 3 0 0 1 0 6z"/>
        </symbol>
        <symbol id="icon-sidebar-store" viewBox="0 0 20 20">
            <path d="M16 10a3.97 3.97 0 0 1-2-.537c-.589.342-1.272.537-2 .537s-1.411-.195-2-.537C9.411 9.805 8.728 10 8 10s-1.411-.195-2-.537A3.97 3.97 0 0 1 4 10c-.347 0-.678-.058-1-.142V16a2 2 0 0 0 2 2h3v-4a1 1 0 0 1 1-1h2a1 1 0 0 1 1 1v4h3a2 2 0 0 0 2-2V9.858A3.939 3.939 0 0 1 16 10zM14.764 2H5.236a2 2 0 0 0-1.789 1.106L2 6a2 2 0 1 0 4 0 2 2 0 1 0 4 0 2 2 0 1 0 4 0 2 2 0 1 0 4 0l-1.447-2.894A2 2 0 0 0 14.764 2z"/>
        </symbol>
        <symbol id="icon-sidebar-support" viewBox="0 0 20 20">
            <path d="M10 2a8 8 0 1 0 0 16 8 8 0 0 0 0-16zm.693 12.736a1.007 1.007 0 0 1-.686.264c-.264 0-.498-.087-.695-.26-.207-.181-.312-.431-.312-.743 0-.28.099-.52.294-.711a1.02 1.02 0 0 1 1.419.002c.191.191.287.43.287.709 0 .308-.104.557-.307.739zm2.328-6.078c-.141.26-.31.488-.504.678-.177.174-.497.467-.956.878a3.525 3.525 0 0 0-.281.28.94.94 0 0 0-.134.186.938.938 0 0 0-.067.165c-.021.073-.05.196-.089.371-.09.502-.417.784-.917.784a.934.934 0 0 1-.669-.262c-.185-.178-.279-.431-.279-.752 0-.345.055-.652.166-.912.108-.255.254-.483.433-.676.166-.178.382-.386.665-.634.231-.202.399-.354.501-.457.09-.09.166-.19.224-.296a.599.599 0 0 0 .076-.296.719.719 0 0 0-.247-.557c-.172-.159-.393-.236-.675-.236-.33 0-.568.076-.708.226-.168.176-.313.45-.434.812-.2.667-.636.809-.968.809a.962.962 0 0 1-.713-.299.926.926 0 0 1-.289-.66c0-.4.128-.807.379-1.21.25-.399.616-.732 1.087-.989s1.025-.389 1.645-.389c.576 0 1.093.109 1.538.324.453.218.81.522 1.06.902.252.383.379.805.379 1.257 0 .357-.075.678-.223.953z"/>
        </symbol>
        <symbol id="icon-selected" viewBox="0 0 20 20">
            <path d="M15.707 6.293a.999.999 0 0 0-1.414 0L9 11.586 5.707 8.293a.999.999 0 1 0-1.414 1.414l4 4a.997.997 0 0 0 1.414 0l6-6a.999.999 0 0 0 0-1.414z"/>
        </symbol>
        <symbol id="icon-view" viewBox="0 0 20 20">
            <path d="M17.8 9.1C16.4 6.1 13.4 4 10 4S3.6 6.1 2.2 9.1c-.3.6-.3 1.2 0 1.8 1.4 3 4.4 5.1 7.8 5.1s6.4-2.1 7.8-5.1c.3-.6.3-1.2 0-1.8zM10 13c-1.7 0-3-1.3-3-3s1.3-3 3-3 3 1.3 3 3-1.3 3-3 3z"/>
        </symbol>
        <symbol id="icon-bookmark" viewBox="0 0 20 20">
            <path d="M15 16l-5-5-5 5V4h10z"/>
        </symbol>
        <symbol id="icon-star-half" viewBox="0 0 20 20">
            <path fill="#d2dce8" d="M12.525 6.913l3.599.534c.838.124 1.173 1.176.566 1.78l-2.604 2.592.615 3.661c.143.853-.733 1.503-1.482 1.1L10 14.852V3a1 1 0 0 1 .916.582l1.609 3.331z"/>
            <path fill="#ffb000" d="M10 14.852L6.781 16.58c-.749.403-1.625-.247-1.482-1.1l.615-3.661L3.31 9.227c-.607-.604-.272-1.656.566-1.78l3.598-.534 1.61-3.331c.192-.396.544-.59.916-.582v11.852z"/>
        </symbol>
        <symbol id="icon-bookmark-o" viewBox="0 0 20 20">
            <path d="M14 5v8.6l-4-4-4 4V5h8zm1-1H5v12l5-5 5 5V4z"/>
        </symbol>
        <symbol id="icon-filter" viewBox="0 0 20 20">
            <path d="M3 6h7c.5 0 1-.4 1-1 0-.5-.4-1-1-1H3c-.6 0-1 .4-1 1s.4 1 1 1zM17 4h-3V3c0-.6-.4-1-1-1s-1 .4-1 1v4c0 .6.4 1 1 1s1-.4 1-1V6h3c.5 0 1-.4 1-1s-.4-1-1-1zM7 14H3c-.5 0-1 .4-1 1 0 .5.4 1 1 1h4c.5 0 1-.4 1-1s-.4-1-1-1zM17 9h-7c-.5 0-1 .4-1 1 0 .5.4 1 1 1h7c.5 0 1-.4 1-1s-.4-1-1-1zM17 14h-6v-1c0-.6-.4-1-1-1s-1 .4-1 1v4c0 .6.4 1 1 1s1-.4 1-1v-1h6c.5 0 1-.4 1-1s-.4-1-1-1zM7 7c-.6 0-1 .4-1 1v1H3c-.5 0-1 .4-1 1 0 .5.4 1 1 1h3v1c0 .6.4 1 1 1s1-.4 1-1V8c0-.6-.4-1-1-1z"/>
        </symbol>
        <symbol id="icon-checked" viewBox="0 0 20 20">
            <path fill="#179ac7" d="M12.7 8l-3.4 3.3-2-2L6 10.7 9.3 14 14 9.3z"/>
            <path fill="#fff" d="M12.7 7l-3.4 3.3-2-2L6 9.7 9.3 13 14 8.3z"/>
        </symbol>
        <symbol id="icon-loader" viewBox="0 0 80 80">
          <circle fill="none" stroke-width="7" stroke-linecap="round" cx="40" cy="40" r="28"></circle>
        </symbol>
        <symbol id="icon-large-close" viewBox="0 0 40 40">
            <path d="M20 18.586l-8.293-8.293c-0.391-0.391-1.024-0.391-1.414 0s-0.391 1.024 0 1.414l8.293 8.293-8.293 8.293c-0.391 0.391-0.391 1.024 0 1.414s1.024 0.391 1.414 0l8.293-8.293 8.293 8.293c0.391 0.391 1.024 0.391 1.414 0s0.391-1.024 0-1.414l-8.293-8.293 8.293-8.293c0.391-0.391 0.391-1.024 0-1.414s-1.024-0.391-1.414 0l-8.293 8.293z"/>
        </symbol>
        <symbol id="icon-chevron-right" viewBox="0 0 40 40">
            <path d="M27 20c0-0.256-0.098-0.512-0.293-0.707l-11-11c-0.391-0.391-1.024-0.391-1.414 0s-0.391 1.024 0 1.414l10.293 10.293-10.293 10.293c-0.391 0.391-0.391 1.024 0 1.414s1.024 0.391 1.414 0l11-11c0.195-0.195 0.293-0.451 0.293-0.707v0z"/>
        </symbol>
        <symbol id="icon-chevron-left" viewBox="0 0 40 40">
            <path d="M13 20c0-0.256 0.098-0.512 0.293-0.707l11-11c0.391-0.391 1.024-0.391 1.414 0s0.391 1.024 0 1.414l-10.293 10.293 10.293 10.293c0.391 0.391 0.391 1.024 0 1.414s-1.024 0.391-1.414 0l-11-11c-0.195-0.195-0.293-0.451-0.293-0.707v0z"/>
        </symbol>
        <symbol id="icon-large-automated" viewBox="0 0 40 40">
            <path d="M7.436 13.855l-1.723-1.784a1 1 0 0 1 .42-1.649l7.541-2.368a1 1 0 0 1 1.243 1.287l-2.63 7.453a1 1 0 0 1-1.662.362l-1.693-1.753a11.948 11.948 0 0 0 1.02 11.094 11.95 11.95 0 0 0 10.23 5.446 1 1 0 0 1 .032 2 13.947 13.947 0 0 1-11.939-6.357 13.951 13.951 0 0 1-.837-13.732l-.002.001zm.84-2.01l2.663 2.757 1.426-4.041-4.089 1.284zm22.689 12.877a11.949 11.949 0 0 0-.953-11.253 11.948 11.948 0 0 0-10.376-5.443 1 1 0 0 1-.055-1.999A13.949 13.949 0 0 1 31.69 12.38a13.955 13.955 0 0 1 .763 13.883l1.558 1.614a1 1 0 0 1-.42 1.649l-7.541 2.368a1 1 0 0 1-1.243-1.287l2.63-7.453a1 1 0 0 1 1.662-.362l1.865 1.931.001-.001zm.483 3.379l-2.663-2.757-1.426 4.041 4.089-1.284z"/>
            <path d="M16.707 19.293a.999.999 0 1 0-1.414 1.414l3 3a.999.999 0 0 0 1.414 0l5-5a.999.999 0 1 0-1.414-1.414L19 21.586l-2.293-2.293z"/>
        </symbol>
        <symbol id="icon-large-picture" viewBox="0 0 40 40">
            <path fill="#b5c6da" d="M4 10.991A2.989 2.989 0 0 1 6.996 8h26.008A2.995 2.995 0 0 1 36 10.991v18.018A2.989 2.989 0 0 1 33.004 32H6.996A2.995 2.995 0 0 1 4 29.009V10.991zm8 3.509c0 1.39 1.119 2.5 2.5 2.5 1.39 0 2.5-1.119 2.5-2.5 0-1.39-1.119-2.5-2.5-2.5-1.39 0-2.5 1.119-2.5 2.5zM8 24v2c0 1.112.898 2 2.005 2h19.99A2.003 2.003 0 0 0 32 25.999V25l-7.29-7.291a1.01 1.01 0 0 0-1.42 0l-6.58 6.581a1.007 1.007 0 0 1-1.416.004l-3.588-3.588c-.393-.393-.974-.348-1.306.094L8 24z"/>
        </symbol>
        <symbol id="icon-oberlo" viewBox="0 0 20 20">
            <path d="M4.891 5.216A4.102 4.102 0 0 1 7.804 4h8.136C17.078 4 18 4.929 18 6.077v7.846A2.068 2.068 0 0 1 15.94 16H7.804a4.105 4.105 0 0 1-2.913-1.217l-3.288-3.315a2.088 2.088 0 0 1 0-2.937l3.288-3.315zM9.12 9.951a2.059 2.059 0 1 0-4.12 0 2.06 2.06 0 1 0 4.12 0z"/>
        </symbol>
        <symbol id="icon-order" viewBox="0 0 20 20">
            <path d="M14.784 4.891A4.102 4.102 0 0 1 16 7.804v8.136c0 1.138-.929 2.06-2.077 2.06H6.077A2.068 2.068 0 0 1 4 15.94V7.804c0-1.092.438-2.14 1.217-2.913l3.315-3.288a2.088 2.088 0 0 1 2.937 0l3.315 3.288zm-1.799 7.778a.914.914 0 0 0 0-1.254l-.06-.063a.832.832 0 0 0-1.206 0l-.874.847V8.217c0-.47-.362-.878-.844-.878s-.844.408-.844.878v3.982l-.874-.847a.832.832 0 0 0-1.206 0l-.06.063a.914.914 0 0 0 0 1.254l2.291 2.258a.792.792 0 0 0 1.386 0l2.291-2.258z"/>
        </symbol>
    </defs>
</svg>